<svg width="24" height="24" viewBox="0 0 24 24" fill="none" xmlns="http://www.w3.org/2000/svg">
<g id="Iconly/Broken/Hide">
<g id="Hide">
<path id="Hide_2" fill-rule="evenodd" clip-rule="evenodd" d="M12.0001 9.74099C10.6551 9.74099 9.56113 10.7536 9.56113 12.0007C9.56113 12.3685 9.66713 12.7187 9.84713 13.0365L13.1191 10.005C12.7771 9.83919 12.3951 9.74099 12.0001 9.74099ZM19.3851 4.19873C19.6711 3.93376 20.1341 3.93376 20.4201 4.19873C20.7061 4.46371 20.7061 4.89267 20.4201 5.15765L4.61512 19.8008C4.47212 19.9333 4.28512 20 4.09812 20C3.91012 20 3.72312 19.9333 3.58012 19.8008C3.29412 19.5358 3.29412 19.1069 3.58012 18.8428L8.77612 14.0279C8.33712 13.4349 8.09812 12.7354 8.09812 12.0007C8.09812 10.0069 9.84812 8.38554 12.0001 8.38554C12.7871 8.38554 13.5531 8.60975 14.1901 9.01184L16.2241 7.12829C13.3561 5.39946 9.85912 5.5477 7.12712 7.5517C5.68412 8.60326 4.44512 10.1375 3.53212 12.0016C3.93812 12.8345 4.41012 13.6026 4.93612 14.2882C5.17012 14.593 5.09312 15.0164 4.76412 15.2332C4.63512 15.3185 4.48712 15.3592 4.34012 15.3592C4.11112 15.3592 3.88612 15.261 3.74312 15.0739C3.10112 14.2372 2.53412 13.2931 2.05913 12.2675C1.98013 12.097 1.98013 11.9025 2.06013 11.732C3.08112 9.54179 4.51912 7.72773 6.22112 6.48716C9.51912 4.06995 13.8511 3.95043 17.2771 6.1527L19.3851 4.19873ZM21.94 11.731C21.407 10.5923 20.771 9.56208 20.047 8.67173C19.803 8.37247 19.345 8.31225 19.023 8.53738C18.699 8.76345 18.635 9.18778 18.878 9.48704C19.475 10.2217 20.009 11.0658 20.468 12.0006C18.592 15.827 15.445 18.1015 12 18.1015C11.22 18.1015 10.444 17.9839 9.69401 17.7522C9.30901 17.6364 8.89601 17.8254 8.76901 18.1812C8.64101 18.5361 8.84801 18.9196 9.23101 19.0391C10.13 19.3171 11.062 19.4579 12 19.4579C16.127 19.4579 19.843 16.7702 21.94 12.2684C22.02 12.0979 22.02 11.9024 21.94 11.731ZM14.3907 12.4024C14.2127 13.3196 13.4287 14.0479 12.4387 14.2137C12.0407 14.2813 11.7767 14.6343 11.8487 15.0031C11.9127 15.3301 12.2217 15.559 12.5677 15.559C12.6117 15.559 12.6557 15.5553 12.6997 15.5488C14.2877 15.281 15.5467 14.1136 15.8307 12.6424C15.9027 12.2727 15.6377 11.9207 15.2397 11.8549C14.8447 11.7882 14.4617 12.0355 14.3907 12.4024Z" fill="#6C7581"/>
</g>
</g>
</svg>
