<svg width="20" height="16" viewBox="0 0 20 16" fill="none" xmlns="http://www.w3.org/2000/svg">
    <g id="Hide">
        <path id="Hide_2" fill-rule="evenodd" clip-rule="evenodd"
              d="M10.0001 5.74099C8.65513 5.74099 7.56113 6.75364 7.56113 8.00069C7.56113 8.36851 7.66713 8.71872 7.84713 9.03651L11.1191 6.00504C10.7771 5.83919 10.3951 5.74099 10.0001 5.74099ZM17.3851 0.198732C17.6711 -0.066244 18.1341 -0.066244 18.4201 0.198732C18.7061 0.463708 18.7061 0.892672 18.4201 1.15765L2.61512 15.8008C2.47212 15.9333 2.28512 16 2.09812 16C1.91012 16 1.72312 15.9333 1.58012 15.8008C1.29412 15.5358 1.29412 15.1069 1.58012 14.8428L6.77612 10.0279C6.33712 9.4349 6.09812 8.7354 6.09812 8.0007C6.09812 6.00689 7.84812 4.38554 10.0001 4.38554C10.7871 4.38554 11.5531 4.60975 12.1901 5.01184L14.2241 3.12829C11.3561 1.39946 7.85912 1.5477 5.12712 3.5517C3.68412 4.60326 2.44512 6.13753 1.53212 8.00162C1.93812 8.83453 2.41012 9.60259 2.93612 10.2882C3.17012 10.593 3.09312 11.0164 2.76412 11.2332C2.63512 11.3185 2.48712 11.3592 2.34012 11.3592C2.11112 11.3592 1.88612 11.261 1.74312 11.0739C1.10112 10.2372 0.534125 9.29315 0.0591255 8.26752C-0.0198744 8.09705 -0.0198744 7.90249 0.0601255 7.73201C1.08112 5.54179 2.51912 3.72773 4.22112 2.48716C7.51912 0.0699499 11.8511 -0.0495671 15.2771 2.1527L17.3851 0.198732ZM19.94 7.73099C19.407 6.59234 18.771 5.56208 18.047 4.67173C17.803 4.37247 17.345 4.31225 17.023 4.53738C16.699 4.76345 16.635 5.18778 16.878 5.48704C17.475 6.22174 18.009 7.06577 18.468 8.0006C16.592 11.827 13.445 14.1015 10 14.1015C9.22001 14.1015 8.44401 13.9839 7.69401 13.7522C7.30901 13.6364 6.89601 13.8254 6.76901 14.1812C6.64101 14.5361 6.84801 14.9196 7.23101 15.0391C8.13001 15.3171 9.06201 15.4579 10 15.4579C14.127 15.4579 17.843 12.7702 19.94 8.26836C20.02 8.09788 20.02 7.90239 19.94 7.73099ZM12.3907 8.40242C12.2127 9.31965 11.4287 10.0479 10.4387 10.2137C10.0407 10.2813 9.77672 10.6343 9.84872 11.0031C9.91272 11.3301 10.2217 11.559 10.5677 11.559C10.6117 11.559 10.6557 11.5553 10.6997 11.5488C12.2877 11.281 13.5467 10.1136 13.8307 8.64239C13.9027 8.27272 13.6377 7.92065 13.2397 7.85487C12.8447 7.78816 12.4617 8.03553 12.3907 8.40242Z"
              fill="#6C7581"/>
    </g>
</svg>

