<svg width="244" height="108" viewBox="0 0 244 108" fill="none" xmlns="http://www.w3.org/2000/svg">
<rect width="244" height="108" rx="8" fill="white"/>
<path fill-rule="evenodd" clip-rule="evenodd" d="M68.9452 65.3981C68.9452 63.6445 68.9654 58.957 68.9196 58.3794C68.9595 51.4044 63.5797 46.4841 60.1809 46.8676C57.8291 47.06 55.8576 47.964 54.7998 50.5646C53.8185 52.9883 54.6958 56.212 57.957 56.9685C61.4437 57.7809 63.4804 58.4568 64.954 59.4104C66.7596 60.5778 68.2337 62.8083 68.2728 65.4009" fill="#0060AF"/>
<path fill-rule="evenodd" clip-rule="evenodd" d="M67.4879 65.4006C67.4992 63.1527 66.1683 61.1649 64.4287 60.0967C62.8856 59.1526 60.814 58.5326 57.4721 57.7333C56.439 57.4842 55.3584 56.9309 55.0239 56.2256C54.139 57.0661 53.9782 58.9559 54.1339 60.0606C54.3149 61.3383 55.8992 63.4446 58.2846 63.5271C59.7414 63.5823 61.5833 63.2316 62.4665 63.0547C63.9902 62.7445 66.401 63.6441 66.7847 65.3978" fill="#0060AF"/>
<path fill-rule="evenodd" clip-rule="evenodd" d="M70.1774 35.9961C66.1323 35.9961 62.6388 38.5106 62.651 42.8617C62.6637 46.5206 65.7851 48.4793 66.8994 49.8784C68.5826 51.9867 69.4936 54.4822 69.5879 58.3005C69.6619 61.3394 69.6581 64.3403 69.6745 65.4037H70.567C70.5519 64.2911 70.5115 61.1054 70.5574 58.2065C70.618 54.387 71.5618 51.9867 73.2458 49.8784C74.3698 48.4793 77.4883 46.5206 77.495 42.8617C77.5106 38.5106 74.0184 35.9961 69.9775 35.9961" fill="#0060AF"/>
<path fill-rule="evenodd" clip-rule="evenodd" d="M71.204 65.3981C71.204 63.6445 71.183 58.957 71.228 58.3794C71.1884 51.4044 76.5649 46.4841 79.9667 46.8676C82.3185 47.06 84.2874 47.964 85.3486 50.5646C86.3287 52.9883 85.4467 56.212 82.1897 56.9685C78.7005 57.7809 76.6668 58.4568 75.1894 59.4104C73.3858 60.5778 72.0149 62.8083 71.9728 65.4009" fill="#0060AF"/>
<path fill-rule="evenodd" clip-rule="evenodd" d="M72.6603 65.4006C72.6477 63.1527 73.9782 61.1649 75.7128 60.0967C77.2626 59.1526 79.3362 58.5326 82.6753 57.7333C83.7104 57.4842 84.7898 56.9309 85.1184 56.2256C86.0075 57.0661 86.1683 58.9559 86.0122 60.0606C85.8279 61.3383 84.2473 63.4446 81.8661 63.5271C80.4101 63.5823 78.5582 63.2316 77.6787 63.0547C76.1609 62.7445 73.7434 63.6441 73.358 65.3978" fill="#0060AF"/>
<path fill-rule="evenodd" clip-rule="evenodd" d="M73.908 72.6572L73.3908 69.0971L74.6402 68.9186C74.944 68.8797 75.3143 68.9297 75.4624 69.109C75.6261 69.2966 75.6762 69.4517 75.7077 69.6977C75.7553 70.0023 75.6618 70.3538 75.2983 70.5291V70.5398C75.7039 70.5398 75.9492 70.8147 76.0208 71.2788C76.0309 71.3772 76.062 71.6136 76.0309 71.8111C75.9484 72.2812 75.6513 72.4327 75.1489 72.499L73.908 72.6572ZM74.7123 72.0196C74.8604 71.9993 75.0106 71.9918 75.128 71.9212C75.3081 71.8105 75.2917 71.5741 75.2665 71.398C75.2042 71.012 75.0973 70.8649 74.6626 70.9255L74.3891 70.9652L74.5625 72.039L74.7123 72.0196ZM74.4508 70.3749C74.6162 70.3499 74.8401 70.3308 74.9335 70.1829C74.9827 70.0841 75.045 70.0056 75.0038 69.7858C74.9528 69.5256 74.8615 69.3637 74.5102 69.4264L74.1832 69.476L74.3124 70.3883L74.4508 70.3749Z" fill="#0060AF"/>
<path fill-rule="evenodd" clip-rule="evenodd" d="M79.3201 70.5168C79.3297 70.583 79.3411 70.6568 79.3453 70.7231C79.4463 71.372 79.3201 71.9099 78.5458 72.0579C77.4008 72.2653 77.1816 71.5953 76.9804 70.6568L76.8731 70.1487C76.7153 69.251 76.6476 68.5711 77.7635 68.3613C78.3926 68.2534 78.8084 68.4894 78.9813 69.0797C79.0083 69.1677 79.0419 69.2546 79.0545 69.3434L78.3699 69.4767C78.2908 69.2546 78.186 68.8583 77.878 68.8916C77.3251 68.9547 77.5077 69.6029 77.5645 69.8742L77.7703 70.8488C77.8321 71.1435 77.955 71.6144 78.4335 71.5236C78.8218 71.4502 78.6523 70.8798 78.6178 70.6457" fill="#0060AF"/>
<path fill-rule="evenodd" clip-rule="evenodd" d="M80.4187 71.5934L80.1822 67.9091L81.1016 67.6445L83.0301 70.8488L82.3059 71.0531L81.849 70.2388L81.0448 70.4665L81.1488 71.3923L80.4187 71.5934ZM80.9775 69.8695L81.5586 69.7108L80.7868 68.2201L80.9775 69.8695Z" fill="#0060AF"/>
<path fill-rule="evenodd" clip-rule="evenodd" d="M57.699 68.807C57.9869 67.9387 58.2444 67.2989 59.3431 67.5829C59.9309 67.738 60.2953 67.982 60.2781 68.6258C60.2751 68.769 60.2251 68.9153 60.1922 69.0565L59.5084 68.8788C59.5981 68.523 59.6549 68.241 59.1903 68.1061C58.6534 67.9673 58.5225 68.5813 58.4485 68.8463L58.1703 69.8118C58.082 70.0986 57.9759 70.5726 58.4485 70.6952C58.839 70.794 59.0755 70.433 59.2168 69.9054L58.7388 69.7856L58.9042 69.2271L60.029 69.5679L59.495 71.4294L58.9774 71.2969L59.094 70.9034H59.0792C58.8406 71.2255 58.5503 71.2593 58.2957 71.2128C57.1709 70.9265 57.2883 70.2335 57.5568 69.3076" fill="#0060AF"/>
<path fill-rule="evenodd" clip-rule="evenodd" d="M61.8856 70.381L61.5469 71.8955L60.7844 71.7404L61.597 68.2041L62.8968 68.4806C63.6576 68.6357 63.8874 68.9546 63.7797 69.6123C63.7182 69.9895 63.5209 70.3957 63.039 70.3628L63.034 70.3568C63.4413 70.4909 63.4758 70.6849 63.4047 71.0193C63.374 71.1621 63.1623 72.026 63.3084 72.1657L63.3134 72.272L62.5244 72.0776C62.4916 71.8384 62.6035 71.4076 62.6477 71.1688C62.6919 70.9578 62.763 70.6603 62.5358 70.5488C62.3582 70.4592 62.2917 70.4635 62.0906 70.4203L61.8856 70.381ZM62.0157 69.8338L62.5291 69.9643C62.8409 70.0071 63.0142 69.8548 63.0757 69.4994C63.1312 69.1737 63.0593 69.0468 62.7794 68.9837L62.229 68.8782L62.0157 69.8338Z" fill="#0060AF"/>
<path fill-rule="evenodd" clip-rule="evenodd" d="M66.7764 68.9948L67.5304 69.0773L67.2056 71.5637C67.0478 72.3518 66.7246 72.6962 65.8047 72.5887C64.8689 72.4768 64.6467 72.0754 64.7031 71.2808L65.0305 68.7969L65.7904 68.8786L65.4643 71.307C65.4294 71.5708 65.365 71.9615 65.8624 72.0091C66.3038 72.0409 66.404 71.7648 66.454 71.422" fill="#0060AF"/>
<path fill-rule="evenodd" clip-rule="evenodd" d="M68.3614 72.7239L68.5886 69.1689L70.037 69.228C70.7221 69.2602 70.9009 69.787 70.8799 70.2899C70.8597 70.5958 70.7587 70.9373 70.4759 71.1226C70.244 71.28 69.9457 71.3173 69.6696 71.3046L69.1975 71.28L69.1033 72.7699L68.3614 72.7239ZM69.2186 70.7386L69.6024 70.7589C69.9142 70.7696 70.1208 70.6533 70.1477 70.2218C70.1633 69.8076 69.9966 69.737 69.5927 69.7204L69.2889 69.7104L69.2186 70.7386Z" fill="#0060AF"/>
<path fill-rule="evenodd" clip-rule="evenodd" d="M170.544 39.4346L164.786 49.2871C162.613 47.6231 159.959 46.399 156.573 46.399C148.56 46.399 145.304 52.0293 145.304 55.9957C145.304 58.9401 147.35 63.2837 154.479 63.2837C157.473 63.2837 161.727 61.3214 162.951 60.4281L157.257 71.8585C154.542 72.3691 153.65 72.6856 151.353 72.7526C138.591 73.1116 133.434 65.7212 133.438 58.1702C133.446 48.1872 142.861 36.0466 158.47 36.0466C159.426 36.0466 160.596 36.3588 161.596 36.7043L162.607 35.4854" fill="#0060AF"/>
<path fill-rule="evenodd" clip-rule="evenodd" d="M194.303 35.792L195.934 71.5999H183.799L183.792 65.4591H175.517L172.794 71.5999H159.634L173.393 46.0301L170.29 46.011L176.185 35.792H194.303ZM183.713 46.7463L179.035 57.1617H183.855L183.713 46.7463Z" fill="#0060AF"/>
<path fill-rule="evenodd" clip-rule="evenodd" d="M125.777 35.7924C131.786 35.8242 135.182 38.8992 135.182 43.3407C135.182 47.4359 131.601 51.0603 127.669 52.9346C131.717 54.3376 132.067 57.7807 132.067 60.2163C132.067 66.1017 125.803 71.6004 117.66 71.6004H99.9011L106.828 46.3867L103.983 46.3713L109.8 35.7924C109.8 35.7924 120.89 35.7607 125.777 35.7924ZM119.881 50.3108C121.124 50.3108 123.319 50.0141 123.868 47.7464C124.469 45.2842 122.409 45.218 121.421 45.218L117.891 45.2037L116.659 50.3108H119.881ZM114.89 56.6396L113.264 62.5247H117.421C119.057 62.5247 121.286 61.7591 121.832 59.844C122.371 57.9237 120.813 56.6396 119.184 56.6396H114.89Z" fill="#0060AF"/>
<path fill-rule="evenodd" clip-rule="evenodd" d="M70.3374 76C64.1883 76 57.8696 74.5724 51.5589 71.7489L51.4041 71.6771L51.33 71.5283C48.498 65.8932 47 59.7301 47 53.6999C47 47.6784 48.4366 41.7787 51.2702 36.1512L51.3485 36.0016L51.5063 35.927C57.344 33.3201 63.6235 32 70.1774 32C76.2819 32 82.8022 33.4697 89.0291 36.2583L89.1886 36.3253L89.2627 36.4776C92.1485 42.2167 93.6705 48.3786 93.6705 54.3092C93.6705 60.216 92.2091 66.1213 89.3195 71.8568L89.2437 72.0071L89.083 72.0769C83.3341 74.6422 76.8517 76 70.3374 76ZM52.143 70.9752C58.2732 73.6939 64.3878 75.0664 70.3374 75.0664C76.646 75.0664 82.9196 73.7665 88.5049 71.3024C91.2792 65.7446 92.6855 60.0246 92.6855 54.3082C92.6855 48.568 91.2177 42.5977 88.4413 37.0272C82.3983 34.3493 76.0872 32.9292 70.1775 32.9292C63.8327 32.9292 57.751 34.1978 52.09 36.7008C49.3725 42.155 47.9893 47.8706 47.9893 53.6989C47.9893 59.5375 49.4264 65.5106 52.143 70.9752Z" fill="#0060AF"/>
</svg>
