<svg width="244" height="108" viewBox="0 0 244 108" fill="none" xmlns="http://www.w3.org/2000/svg">
<rect width="244" height="108" rx="8" fill="white"/>
<g clip-path="url(#clip0_606_1217)">
<path fill-rule="evenodd" clip-rule="evenodd" d="M106.092 64.6228C109.04 64.8323 112.477 62.5602 113.687 61.263C117.895 56.7469 117.997 50.2166 113.76 45.4871C112.184 43.7266 108.48 41.7808 106.136 42.0548H97.6514V64.5946L106.112 64.6228H106.092ZM102.436 59.7402V46.9092C103.764 46.8228 105.097 46.8228 106.425 46.9092C107.47 47.0294 108.466 47.4121 109.321 48.0211C114.195 51.3245 112.164 59.2003 106.343 59.7281C105.043 59.8188 103.737 59.8228 102.436 59.7402Z" fill="#008CEB"/>
<path fill-rule="evenodd" clip-rule="evenodd" d="M180.58 64.6631H185.417V59.8047H195.015L195.043 64.6389H199.881V56.6301C199.881 54.213 200.084 51.1996 199.475 49.0121C198.921 47.0095 197.723 45.2414 196.062 43.9775C194.401 42.7136 192.368 42.0233 190.275 42.0119C188.181 42.0005 186.141 42.6686 184.467 43.9143C182.792 45.16 181.573 46.915 180.998 48.9114C180.348 51.0707 180.567 54.1687 180.567 56.5657C180.567 59.2729 180.539 61.9962 180.567 64.7034L180.58 64.6631ZM185.421 54.918C185.393 52.9037 185.177 50.7484 186.132 49.1974C186.551 48.4834 187.153 47.8921 187.877 47.4838C188.601 47.0755 189.422 46.8647 190.255 46.873C191.083 46.879 191.896 47.0982 192.614 47.5092C193.331 47.9202 193.929 48.5088 194.349 49.2176C195.291 50.829 195.068 52.8433 195.043 54.922L185.421 54.918Z" fill="#008CEB"/>
<path fill-rule="evenodd" clip-rule="evenodd" d="M125.259 64.6589H130.08C130.08 63.6437 129.95 60.5376 130.125 59.8004H139.686L139.719 64.6548H144.548C144.524 61.9638 144.548 59.2767 144.548 56.5977C144.548 54.3014 144.763 51.0141 144.142 48.9757C143.585 46.9757 142.384 45.2109 140.723 43.9499C139.062 42.6889 137.031 42.0008 134.939 41.9904C132.847 41.9799 130.809 42.6476 129.135 43.8918C127.461 45.136 126.242 46.8887 125.665 48.883C125.019 50.9779 125.239 54.1806 125.239 56.5131C125.239 59.2042 125.178 61.9638 125.239 64.6468L125.259 64.6589ZM130.084 54.9178C130.052 52.9035 129.845 50.72 130.799 49.2013C131.218 48.489 131.818 47.8981 132.538 47.4875C133.259 47.0768 134.076 46.8607 134.907 46.8607C135.739 46.8607 136.556 47.0768 137.276 47.4875C137.997 47.8981 138.597 48.489 139.016 49.2013C139.962 50.8127 139.735 52.8592 139.719 54.9097L130.084 54.9178Z" fill="#008CEB"/>
<path fill-rule="evenodd" clip-rule="evenodd" d="M153.033 50.8571L152.964 54.2129C152.964 57.0329 152.826 62.2982 152.964 64.5904H157.692C157.801 62.979 157.521 51.5339 157.817 51.1673C157.817 48.9435 160.161 46.8728 162.525 46.8648C163.754 46.8574 164.937 47.3257 165.823 48.17C166.424 48.7139 167.346 49.9547 167.33 51.2076C167.549 51.3324 167.375 63.2933 167.444 64.6186H172.176L172.139 50.9417C172.257 49.8701 171.607 48.2143 171.189 47.3764C170.413 45.7798 169.202 44.4305 167.693 43.4814C166.184 42.5323 164.437 42.0213 162.65 42.0062C160.863 41.9911 159.107 42.4726 157.582 43.396C156.057 44.3195 154.823 45.6481 154.02 47.2314C153.614 48.0572 152.931 49.7573 153.033 50.8571Z" fill="#008CEB"/>
<path d="M66.9403 75.25C79.1906 75.25 89.1214 65.4003 89.1214 53.25C89.1214 41.0997 79.1906 31.25 66.9403 31.25C54.6901 31.25 44.7593 41.0997 44.7593 53.25C44.7593 65.4003 54.6901 75.25 66.9403 75.25Z" fill="#008CEB"/>
<path d="M79.8648 53.3424V59.5343C79.8648 59.9372 79.6902 60.0218 79.349 59.8244C78.8926 59.5527 78.4175 59.3131 77.9274 59.1073C76.447 58.5224 74.8436 58.3106 73.2605 58.4909C71.5326 58.7132 69.8368 59.1351 68.2077 59.7478C66.583 60.2917 64.9908 60.8799 63.3336 61.3351C61.961 61.7394 60.5326 61.9256 59.1013 61.887C57.5151 61.826 55.9735 61.3492 54.6334 60.5052C54.465 60.4046 54.3269 60.2612 54.2333 60.0897C54.1397 59.9183 54.0942 59.7251 54.1013 59.5303C54.1013 55.4749 54.1013 51.4194 54.1013 47.364C54.1013 47.1666 54.1013 46.933 54.28 46.8323C54.4587 46.7315 54.6415 46.8967 54.7959 46.9974C56.2511 47.9733 57.9745 48.4798 59.7309 48.4477C60.9867 48.3966 62.2286 48.1673 63.4189 47.7669C65.1086 47.2472 66.7414 46.5583 68.4026 45.9742C69.6958 45.4813 71.0217 45.0774 72.3709 44.7656C73.5289 44.4966 74.7304 44.4684 75.8999 44.6826C77.0694 44.8969 78.1815 45.349 79.1662 46.0104C79.392 46.1476 79.5768 46.342 79.7017 46.5735C79.8267 46.805 79.8872 47.0654 79.877 47.3278C79.877 49.3421 79.877 51.3563 79.877 53.3706L79.8648 53.3424Z" fill="#FEFEFE"/>
</g>
<defs>
<clipPath id="clip0_606_1217">
<rect width="155.158" height="44" fill="white" transform="translate(44.7593 31.25)"/>
</clipPath>
</defs>
</svg>
