<svg width="244" height="108" viewBox="0 0 244 108" fill="none" xmlns="http://www.w3.org/2000/svg">
<rect width="244" height="108" rx="8" fill="white"/>
<path fill-rule="evenodd" clip-rule="evenodd" d="M94.666 25.6251H98.9188C99.2427 25.6251 99.4914 25.9111 99.4452 26.2304L97.4701 39.8845C97.3941 40.41 97.8033 40.8806 98.336 40.8806H105.797C106.009 40.8806 106.171 41.0682 106.14 41.2769L105.561 45.1986C105.531 45.4023 105.356 45.5536 105.149 45.5536H96.7131C94.2038 45.5536 91.7973 43.5027 92.1514 41.0269L94.1389 26.0854C94.1739 25.822 94.3992 25.6251 94.666 25.6251Z" fill="#E82529"/>
<path fill-rule="evenodd" clip-rule="evenodd" d="M108.847 31.0733L106.901 44.9982C106.87 45.219 107.042 45.4162 107.266 45.4162H111.381C111.674 45.4162 111.922 45.2013 111.962 44.9125L113.89 31.214C113.931 30.8984 113.684 30.6186 113.365 30.6186H109.372C109.107 30.6186 108.884 30.8127 108.847 31.0733Z" fill="#E82529"/>
<path fill-rule="evenodd" clip-rule="evenodd" d="M117.336 44.3485C116.066 44.3029 115.472 44.6995 114.723 45.1449C114.904 43.8894 116.322 34.1058 116.451 33.5048C116.588 32.864 116.712 31.7949 117.277 31.2557C117.94 30.6227 118.966 30.2605 124.069 30.2441C129.279 30.2273 130.288 33.9635 130.011 36.3912C129.776 38.4691 129.001 43.6031 128.782 45.0374C128.748 45.2555 128.561 45.416 128.341 45.416H124.317C124.022 45.416 123.796 45.157 123.837 44.8663C124.04 43.4319 124.586 39.6081 124.771 38.4977C125.001 37.1242 125.185 35.6128 124.817 35.0162C124.449 34.4207 123.346 33.9635 121.232 34.3301L119.668 45.348C119.668 45.348 118.662 44.3963 117.336 44.3485Z" fill="#E82529"/>
<path fill-rule="evenodd" clip-rule="evenodd" d="M134.376 24.8341H138.839C139.006 24.8341 139.133 24.9804 139.111 25.1444L136.333 45.1968C136.312 45.3456 136.185 45.4565 136.034 45.4565H131.627C131.443 45.4565 131.303 45.2953 131.328 45.1145L134.105 25.0698C134.123 24.9347 134.239 24.8341 134.376 24.8341Z" fill="#E82529"/>
<path fill-rule="evenodd" clip-rule="evenodd" d="M137.83 36.916L142.875 31.0285C143.033 30.8431 143.266 30.7362 143.511 30.7362H147.94C148.259 30.7362 148.428 31.1136 148.214 31.35L143.056 37.0548L147.771 47.1612C147.944 47.532 147.672 47.9563 147.262 47.9563H143.259C143.05 47.9563 142.86 47.8349 142.773 47.6457L137.83 36.916Z" fill="#E82529"/>
<path fill-rule="evenodd" clip-rule="evenodd" d="M114.752 26.8479C114.391 28.3652 113.02 29.4942 111.585 29.4942C110.149 29.4942 109.049 28.2643 109.41 26.7473C109.771 25.23 110.959 24 112.662 24C114.098 24 115.113 25.3306 114.752 26.8479Z" fill="#E82529"/>
<path fill-rule="evenodd" clip-rule="evenodd" d="M119.29 48.9657C118.929 50.483 117.558 51.612 116.122 51.612C114.687 51.612 113.586 50.3821 113.947 48.8651C114.308 47.3478 115.496 46.1178 117.2 46.1178C118.635 46.1178 119.65 47.4484 119.29 48.9657Z" fill="#E82529"/>
<path fill-rule="evenodd" clip-rule="evenodd" d="M140.882 67.0974C140.578 68.5966 139.192 69.712 137.683 69.7111C136.174 69.7105 134.955 68.4941 135.26 66.9952C135.564 65.4959 136.752 64.2808 138.543 64.2818C140.052 64.2827 141.186 65.5981 140.882 67.0974Z" fill="#E82529"/>
<path fill-rule="evenodd" clip-rule="evenodd" d="M102.886 59.6299H100.184C100.083 59.6299 100.014 59.5292 100.051 59.436L102.403 53.4868C102.448 53.3734 102.616 53.3976 102.627 53.5188L103.155 59.3363C103.17 59.4938 103.045 59.6299 102.886 59.6299ZM109.433 67.1008L106.418 49.112C106.286 48.3255 105.602 47.7493 104.802 47.7493H101.776C100.853 47.7493 100.016 48.2864 99.6336 49.1234L91.5097 67.1231C91.3919 67.3843 91.5845 67.6791 91.8716 67.6776L96.0926 67.653C96.3815 67.6515 96.6415 67.4788 96.7543 67.2141L98.1575 63.9246C98.1955 63.8348 98.2837 63.7767 98.3816 63.7767H103.49C103.615 63.7767 103.72 63.8714 103.732 63.9957L104.037 67.1085C104.072 67.4707 104.378 67.7471 104.744 67.7471H108.884C109.228 67.7471 109.49 67.439 109.433 67.1008Z" fill="#E82529"/>
<path fill-rule="evenodd" clip-rule="evenodd" d="M107.42 70.3593L108.395 73.3606C108.57 73.8545 108.702 73.9641 109.044 73.8921C110.276 73.6333 113.251 72.7571 114.707 70.7944C116.605 68.2357 116.865 63.7121 117.2 61.413C117.476 59.5193 118.08 54.8578 118.285 53.2734C118.321 52.9883 118.099 52.7364 117.81 52.7364H114.026C113.692 52.7364 113.409 52.9824 113.364 53.3125C113.059 55.5504 111.96 63.5978 111.768 64.7132C111.545 66.0112 111.5 67.8807 109.573 68.9967C108.612 69.5533 108.119 69.6595 107.738 69.8365C107.545 69.9266 107.326 70.0232 107.42 70.3593Z" fill="#E82529"/>
<path fill-rule="evenodd" clip-rule="evenodd" d="M128.244 63.43C128.244 63.43 126.271 64.0987 125.324 63.3906C124.376 62.6827 124.298 61.2275 124.85 59.1431C125.403 57.0583 126.784 56.7045 127.376 56.6651C127.968 56.6257 129.081 56.9049 129.081 56.9049L128.244 63.43ZM133.708 53.2749C132.432 52.9568 130.287 52.258 126.838 52.5099C123.656 52.7422 120.063 54.2089 119.39 60.4684C118.718 66.728 121.589 67.9353 125.717 68.1142C128.741 68.2453 131.115 67.416 132.168 66.9634C132.535 66.8059 132.79 66.4683 132.844 66.0742L134.369 54.0225C134.429 53.5442 134.189 53.3945 133.708 53.2749Z" fill="#E82529"/>
<path fill-rule="evenodd" clip-rule="evenodd" d="M136.651 62.2864L137.762 50.746C137.802 50.3326 138.15 50.1639 138.567 50.1639H142.397C142.754 50.1639 142.906 50.4338 142.807 50.8758L140.469 62.4317C140.421 62.6554 140.224 62.8153 139.994 62.8153H137.134C136.848 62.8153 136.624 62.57 136.651 62.2864Z" fill="#E82529"/>
<path fill-rule="evenodd" clip-rule="evenodd" d="M91.8227 83.5664C92.5813 83.9842 93.4674 84.1056 94.3108 83.9065C97.6704 83.1132 105.105 80.9778 120.832 78.7123C140.59 75.866 155.179 75.8778 155.179 75.8778L155.217 75.8545C155.217 75.8545 142.287 74.084 121.066 76.1495C99.8443 78.215 88 81.4611 88 81.4611L91.8227 83.5664Z" fill="#E82529"/>
</svg>
