<svg width="244" height="108" viewBox="0 0 244 108" fill="none" xmlns="http://www.w3.org/2000/svg">
<rect width="244" height="108" fill="#1E1E1E"/>
<g id="Payment Page Virtual Account">
<rect width="1440" height="1853" transform="translate(-252 -392)" fill="#171A1C"/>
<rect id="Rectangle 790" x="-72" y="-236" width="658" height="1075" rx="12" fill="#191D24"/>
<g id="Payment logo">
<rect id="Background" width="244" height="108" rx="8" fill="white"/>
<g id="logo">
<g id="Logo Mandiri">
<path id="Fill 1" fill-rule="evenodd" clip-rule="evenodd" d="M48.154 62.238C48.154 60.0536 48.1155 58.2205 48 56.586H52.0072L52.1951 59.3941H52.3075C53.2158 57.9102 54.8767 56.1553 57.9749 56.1553C60.3931 56.1553 62.282 57.5621 63.074 59.6666H63.1518C63.7951 58.6142 64.5482 57.8351 65.4164 57.2872C66.4374 56.5474 67.609 56.1553 69.1202 56.1553C72.1795 56.1553 75.2754 58.2991 75.2754 64.3819V75.5695H70.7426V65.0847C70.7426 61.9273 69.6866 60.0536 67.4589 60.0536C65.8695 60.0536 64.6972 61.2253 64.2094 62.5904C64.0946 63.0568 63.9815 63.6421 63.9815 64.184V75.5695H59.4472V64.5761C59.4472 61.9273 58.4288 60.0536 56.2751 60.0536C54.5371 60.0536 53.3674 61.4593 52.9509 62.7819C52.7607 63.2527 52.6844 63.797 52.6844 64.3417V75.5695H48.154V62.238Z" fill="#003D79"/>
<path id="Fill 3" fill-rule="evenodd" clip-rule="evenodd" d="M92.9357 71.0099C92.9357 72.7242 93.0112 74.3977 93.2002 75.5705H89.0055L88.7044 73.466H88.5897C87.457 74.9487 85.5304 75.9996 83.1506 75.9996C79.4476 75.9996 77.3708 73.234 77.3708 70.3476C77.3708 65.5509 81.487 63.1361 88.2875 63.1746V62.8616C88.2875 61.6136 87.7958 59.5488 84.5475 59.5488C82.7333 59.5488 80.8437 60.1341 79.5978 60.9513L78.6899 57.8353C80.0525 56.9759 82.4345 56.1562 85.341 56.1562C91.2367 56.1562 92.9357 60.018 92.9357 64.1484V71.0099ZM88.4009 66.2937C85.1148 66.2151 81.98 66.9556 81.98 69.8409C81.98 71.7102 83.1508 72.5696 84.6247 72.5696C86.4735 72.5696 87.8357 71.3216 88.2499 69.9577C88.3624 69.6069 88.4009 69.2155 88.4009 68.9048V66.2937Z" fill="#003D79"/>
<path id="Fill 5" fill-rule="evenodd" clip-rule="evenodd" d="M96.1485 62.238C96.1485 60.0536 96.1069 58.2205 95.9968 56.586H100.073L100.301 59.4314H100.413C101.207 57.9519 103.209 56.1553 106.269 56.1553C109.481 56.1553 112.805 58.2991 112.805 64.304V75.5695H108.159V64.8511C108.159 62.1204 107.177 60.0536 104.645 60.0536C102.794 60.0536 101.51 61.4184 101.018 62.8614C100.869 63.2913 100.83 63.8773 100.83 64.4192V75.5695H96.1485V62.238Z" fill="#003D79"/>
<path id="Fill 7" fill-rule="evenodd" clip-rule="evenodd" d="M132.95 48.958V70.2277C132.95 72.1765 133.025 74.2854 133.101 75.5702H128.945L128.759 72.569H128.682C127.586 74.6751 125.353 75.9993 122.674 75.9993C118.294 75.9993 114.817 72.1407 114.817 66.2932C114.779 59.9383 118.632 56.156 123.051 56.156C125.582 56.156 127.397 57.249 128.226 58.6534H128.303V48.958H132.95ZM128.303 64.4971C128.303 64.1113 128.264 63.6413 128.191 63.2528C127.775 61.3815 126.301 59.8602 124.185 59.8602C121.201 59.8602 119.538 62.5905 119.538 66.138C119.538 69.6065 121.201 72.1409 124.147 72.1409C126.035 72.1409 127.699 70.8158 128.151 68.7503C128.264 68.3196 128.303 67.8524 128.303 67.3438V64.4971Z" fill="#003D79"/>
<path id="Fill 9" fill-rule="evenodd" clip-rule="evenodd" d="M136.233 75.5703H140.922V56.5879H136.233V75.5703Z" fill="#003D79"/>
<path id="Fill 11" fill-rule="evenodd" clip-rule="evenodd" d="M144.206 62.7054C144.206 60.1336 144.167 58.2989 144.054 56.5853H148.097L148.245 60.2095H148.402C149.307 57.5198 151.46 56.5853 153.424 56.5853C153.876 56.5853 154.14 56.5054 154.519 56.5853V60.7967C154.14 60.7189 153.726 60.641 153.159 60.641C150.931 60.641 149.418 62.1209 149.003 64.2636C148.93 64.6927 148.854 65.2016 148.854 65.7499V75.5701H144.206V62.7054Z" fill="#003D79"/>
<path id="Fill 12" fill-rule="evenodd" clip-rule="evenodd" d="M156.673 75.5703H161.355V56.5879H156.673V75.5703Z" fill="#003D79"/>
</g>
<path id="Flag" fill-rule="evenodd" clip-rule="evenodd" d="M155.565 33.6353C152.753 35.3159 146.119 39.2421 143.643 40.7041C142.134 41.4976 138.638 41.844 136.661 39.0931C136.626 39.0434 134.031 35.6985 133.925 35.5726C133.851 35.4836 132.174 32.9166 128.437 32.8363C127.885 32.8228 125.14 32.8077 122.461 34.3787C118.901 36.4776 110.621 41.3625 110.621 41.3625C110.619 41.3625 110.619 41.3668 110.615 41.3668C107.211 43.3764 104.559 44.941 104.559 44.941L107.692 48.9121C109.158 50.7901 112.463 52.2431 115.33 50.545C115.33 50.545 125.921 44.2159 125.96 44.1976C130.54 41.6052 134.075 41.6052 136.421 42.5699C138.526 43.4881 140.358 45.7757 140.358 45.7757C140.358 45.7757 142.752 48.8374 143.175 49.3729C144.537 51.1032 146.791 50.4234 146.791 50.4234C146.791 50.4234 147.627 50.3257 148.886 49.5541C148.886 49.5541 159.145 43.4157 159.152 43.4138C162.409 41.4415 165.397 41.0732 166.924 41.2183C171.707 41.6668 173.192 45.1146 175.266 47.5199C176.487 48.9347 177.589 49.7381 179.274 49.6975C180.382 49.6733 181.633 48.9804 181.817 48.8552L194.102 41.5393C194.102 41.5393 192.842 39.5802 190.26 36.5321C187.95 33.8125 185.495 35.043 183.539 36.043C182.717 36.4625 179.738 38.5071 176.788 39.9334C174.685 40.9493 171.665 40.6438 170.01 38.5333C169.911 38.4049 167.233 35.0596 166.952 34.648C165.871 33.2511 163.762 32 161.06 32C159.417 32 157.552 32.4625 155.565 33.6353Z" fill="url(#paint0_linear_178_60)"/>
</g>
</g>
</g>
<defs>
<linearGradient id="paint0_linear_178_60" x1="104.559" y1="51.297" x2="194.102" y2="51.297" gradientUnits="userSpaceOnUse">
<stop stop-color="#FFCA06"/>
<stop offset="0.330844" stop-color="#FBAA18"/>
<stop offset="0.694742" stop-color="#FFC907"/>
<stop offset="1" stop-color="#FAA619"/>
</linearGradient>
</defs>
</svg>
