<svg width="244" height="108" viewBox="0 0 244 108" fill="none" xmlns="http://www.w3.org/2000/svg">
<rect width="244" height="108" rx="8" fill="white"/>
<path d="M123.452 68.753C124.332 68.3135 125.425 66.7653 125.857 65.347C126.026 64.791 127.616 59.4024 129.389 53.3725C131.288 46.9188 132.898 41.8397 133.304 41.0252C134.524 38.5759 136.28 37.8319 140.838 37.8319H143.25V34.8177L139.248 34.8293C135.576 34.84 135.416 34.9885 134.309 35.5136C132.606 36.322 131.294 37.589 130.432 39.2593C130.014 40.0693 129.114 42.6731 128.388 45.1764C123.827 60.8859 122.591 64.9518 122.264 65.3132C121.753 65.8773 120.978 65.8276 120.57 65.2046C120.384 64.9212 119.084 60.6822 117.68 55.7844C114.182 43.5751 113.31 40.7352 112.673 39.4794C111.904 37.9615 110.2 36.2382 108.787 35.5499C107.639 34.9904 107.576 34.856 103.739 34.8346L99.6091 34.8116V37.7792L102.749 37.873C105.411 37.9525 106.051 38.0393 106.954 38.443C109.53 39.5955 109.741 40.0553 113.136 51.8823C115.22 59.1449 116.916 64.7969 117.32 65.8262C117.84 67.151 118.616 68.1875 119.485 68.7174C120.36 69.251 122.418 69.2695 123.452 68.753Z" fill="#5726D7"/>
<path d="M169.754 73.4066C177.776 71.261 183.263 64.5253 183.876 56.0722C184.405 48.7743 182.089 42.6301 177.257 38.5083C173.614 35.4015 169.528 34 164.113 34C158.585 34 154.222 35.5861 150.527 38.9391C148.617 40.6729 146.711 43.489 145.759 45.9866C144.055 50.4566 144.145 58.3035 145.945 62.368C148.668 68.5137 153.411 72.3416 159.99 73.7039C162.198 74.1611 167.542 73.9983 169.754 73.4066ZM160.494 70.5062C156.268 69.6428 152.758 67.3051 150.481 63.8378C146.836 58.287 146.963 49.1466 150.763 43.6002C152.965 40.3869 156.701 38.0693 160.751 37.4052C162.797 37.0697 167.338 37.2329 169.116 37.7059C174.128 39.0392 178.243 43.1058 179.832 48.2976C181.159 52.6278 180.752 58.4283 178.859 62.2071C176.031 67.8494 170.825 70.8717 164.041 70.8089C162.851 70.7979 161.255 70.6617 160.494 70.5062ZM166.348 69.316C172.346 68.582 176.692 65.0353 178.539 59.3687C178.963 58.0686 179.092 57.1511 179.175 54.8585C179.332 50.5301 178.663 47.817 176.699 44.813C174.895 42.0543 172.44 40.2061 169.217 39.1795C167.584 38.6592 167.11 38.6053 164.219 38.6104C161.359 38.6155 160.838 38.6754 159.222 39.1851C156.019 40.1951 153.654 41.9686 151.788 44.758C149.798 47.7343 149.108 50.4891 149.26 54.8585C149.343 57.2581 149.456 58.0197 149.938 59.4396C151.843 65.0509 156.133 68.5583 162.025 69.3233C163.967 69.5754 164.232 69.575 166.348 69.316ZM160.854 65.826C156.977 64.7603 154.003 61.6422 152.934 57.5237C152.496 55.8374 152.498 52.1732 152.937 50.4985C154.108 46.0369 157.304 42.8664 161.534 41.9697C168.085 40.5812 174.049 44.2293 175.518 50.5226C175.927 52.2791 175.973 55.3363 175.616 57.0979C174.766 61.2974 171.521 64.7611 167.413 65.8566C166.067 66.2154 162.205 66.1973 160.854 65.826Z" fill="#5726D7"/>
<path d="M125.418 73.2142C127.094 72.3894 128.304 71.1146 129.299 69.1259C130.28 67.1664 130.777 65.5637 135.144 50.2856C136.952 43.961 136.935 44.0087 137.744 43.2323C138.358 42.644 138.469 42.6192 140.816 42.5503L143.25 42.4787V39.2675L140.29 39.362C137.676 39.4454 137.212 39.5173 136.318 39.9775C134.502 40.9122 134.218 41.5486 131.768 50.1968C127.003 67.0162 126.863 67.4374 125.461 69.1035C124.29 70.4947 121.843 71.1609 119.867 70.6263C118.541 70.2675 117.192 68.9319 116.328 67.1212C115.718 65.8435 113.553 58.576 109.789 45.1764C108.968 42.2513 108.582 41.4808 107.459 40.519C106.353 39.5726 105.727 39.4388 102.377 39.4331L99.7156 39.4286L99.5905 42.5154H101.735C103.121 42.5154 104.14 42.6239 104.614 42.8219C105.365 43.1355 106.121 44.1203 106.34 45.07C106.676 46.5222 112.469 66.1529 112.898 67.293C114.263 70.9205 115.753 72.6393 118.373 73.6081C119.295 73.9491 119.943 74.0186 121.757 73.971C123.8 73.9174 124.128 73.8495 125.418 73.2142Z" fill="#5726D7"/>
<path d="M83.3235 73.6192C86.9239 72.8724 89.9173 71.3171 92.5305 68.8354C95.1427 66.3546 96.9592 63.2237 97.92 59.5461C98.6404 56.7885 98.7289 52.474 98.1253 49.5458C96.4998 41.6606 90.8706 35.8767 83.3836 34.3989C80.4821 33.8261 75.4948 33.9328 72.8922 34.6233C66.6372 36.2827 61.3684 41.5665 59.8214 47.731C57.3564 57.5534 60.532 66.5577 68.1046 71.218C69.8518 72.2931 72.9341 73.4484 74.9501 73.7836C77.0397 74.1311 81.2546 74.0484 83.3235 73.6192ZM74.6336 70.4163C71.5988 69.7556 69.4279 68.5539 67.1208 66.2576C65.5247 64.6689 65.0257 64.0056 64.3021 62.5106C62.0014 57.7574 61.7577 52.0861 63.6335 46.9466C65.0749 42.9971 68.3097 39.6758 72.103 38.2508C75.9708 36.7978 81.8476 36.8395 85.5557 38.3462C91.5691 40.7897 95.1386 46.6247 95.1386 54.0111C95.1386 57.9125 94.2923 61.0202 92.4565 63.8599C90.4207 67.0088 87.5444 69.127 83.8499 70.1979C81.5347 70.869 77.1862 70.972 74.6336 70.4163ZM83.1434 68.904C87.0958 67.8948 90.2882 65.378 92.0547 61.8787C93.4294 59.1554 93.7527 57.6783 93.7533 54.1176C93.754 50.3585 93.4903 49.1362 92.0433 46.1897C90.3737 42.7898 87.6005 40.4229 83.8557 39.2018C82.2327 38.6726 81.7281 38.61 78.9594 38.5944C76.3342 38.5796 75.619 38.6504 74.177 39.0679C71.6065 39.8121 70.1247 40.6908 68.197 42.614C66.2262 44.5803 64.9658 46.7662 64.2383 49.4795C63.6095 51.8247 63.6095 56.1975 64.2383 58.5427C65.5378 63.3894 68.8079 66.9684 73.375 68.5427C76.4725 69.6103 79.8831 69.7365 83.1434 68.904ZM75.2339 65.7432C73.3701 65.2003 72.2154 64.5378 70.8297 63.216C69.2622 61.7208 68.4915 60.5066 67.7574 58.3752C67.2378 56.8664 67.1714 56.3687 67.1756 54.0111C67.1797 51.707 67.2569 51.1171 67.7508 49.6135C68.4462 47.4965 69.6812 45.5944 71.1513 44.3759C72.6557 43.1291 73.7387 42.5809 75.6777 42.085C82.3791 40.3711 88.7509 44.1946 90.1434 50.7655C90.5305 52.5922 90.5331 55.4181 90.1492 57.2289C89.2691 61.3813 86.07 64.7692 82.0374 65.8195C80.3353 66.2629 76.8854 66.2241 75.2339 65.7432Z" fill="#5726D7"/>
</svg>
