<svg width="142" height="51" viewBox="0 0 142 51" fill="none" xmlns="http://www.w3.org/2000/svg">
<path d="M135.889 18.0978H113.51V13.7081H135.889V4.93326H100.084V26.868H122.462V31.2578H100.084V40.0326H135.889V18.0978Z" fill="black"/>
<path d="M135.889 18.0978H113.51V13.7081H135.889V4.93326H100.084V26.868H122.462V31.2578H100.084V40.0326H135.889V18.0978Z" fill="black"/>
<path d="M95.6097 4.93326H86.6572V40.028H95.6097V4.93326Z" fill="black"/>
<path d="M95.6097 4.93326H86.6572V40.028H95.6097V4.93326Z" fill="black"/>
<path d="M46.3783 4.93326V13.7081H73.2309V18.0978H46.3783V40.0326H55.326V27.0016L68.757 40.0326H82.1834L68.1743 26.868H82.1834V4.93326H46.3783Z" fill="black"/>
<path d="M46.3783 4.93326V13.7081H73.2309V18.0978H46.3783V40.0326H55.326V27.0016L68.757 40.0326H82.1834L68.1743 26.868H82.1834V4.93326H46.3783Z" fill="black"/>
<path d="M19.521 26.868H28.4499V18.1162H19.521V26.868ZM21.7626 20.2904H26.2365V24.6755H21.7626V20.2904Z" fill="black"/>
<path d="M19.521 26.868H28.4499V18.1162H19.521V26.868ZM21.7626 20.2904H26.2365V24.6755H21.7626V20.2904Z" fill="black"/>
<path d="M15.0471 4.93326H7.21313C6.91708 4.93546 6.63369 5.0512 6.42363 5.25569C6.31912 5.35777 6.23626 5.4791 6.1798 5.6127C6.12334 5.7463 6.09441 5.88953 6.09467 6.03414V38.9317C6.09441 39.0763 6.12334 39.2196 6.1798 39.3532C6.23626 39.4868 6.31912 39.6081 6.42363 39.7102C6.63416 39.9134 6.91765 40.0275 7.21313 40.028H28.4734V31.2762H15.0471V4.93326Z" fill="black"/>
<path d="M15.0471 4.93326H7.21313C6.91708 4.93546 6.63369 5.0512 6.42363 5.25569C6.31912 5.35777 6.23626 5.4791 6.1798 5.6127C6.12334 5.7463 6.09441 5.88953 6.09467 6.03414V38.9317C6.09441 39.0763 6.12334 39.2196 6.1798 39.3532C6.23626 39.4868 6.31912 39.6081 6.42363 39.7102C6.63416 39.9134 6.91765 40.0275 7.21313 40.028H28.4734V31.2762H15.0471V4.93326Z" fill="black"/>
<path d="M40.7813 4.93326H19.521V13.7081H32.952V26.868H41.8809V6.03414C41.8837 5.74432 41.7707 5.46494 41.5661 5.25569C41.3563 5.05352 41.0754 4.93809 40.7813 4.93326Z" fill="black"/>
<path d="M40.7813 4.93326H19.521V13.7081H32.952V26.868H41.8809V6.03414C41.8837 5.74432 41.7707 5.46494 41.5661 5.25569C41.3563 5.05352 41.0754 4.93809 40.7813 4.93326Z" fill="black"/>
<path d="M41.9044 31.2578H32.952V51H41.9044V31.2578Z" fill="black"/>
<path d="M41.9044 31.2578H32.952V51H41.9044V31.2578Z" fill="black"/>
<path d="M18.5858 0H1.79938C1.50312 0.00121245 1.21935 0.117102 1.00987 0.322432C0.800381 0.527762 0.682145 0.805901 0.680908 1.09628V17.5497H2.91784V3.27041C2.92397 2.98324 3.04436 2.7098 3.25333 2.50842C3.46229 2.30705 3.74327 2.1937 4.03631 2.19256H18.6046L18.5858 0Z" fill="black"/>
<path d="M18.5858 0H1.79938C1.50312 0.00121245 1.21935 0.117102 1.00987 0.322432C0.800381 0.527762 0.682145 0.805901 0.680908 1.09628V17.5497H2.91784V3.27041C2.92397 2.98324 3.04436 2.7098 3.25333 2.50842C3.46229 2.30705 3.74327 2.1937 4.03631 2.19256H18.6046L18.5858 0Z" fill="black"/>
<path d="M139.427 28.5125V42.7917C139.426 43.0821 139.308 43.3602 139.098 43.5656C138.889 43.7709 138.605 43.8868 138.309 43.888H123.741V46.0621H140.527C140.675 46.064 140.822 46.037 140.96 45.9828C141.098 45.9285 141.223 45.8482 141.329 45.7462C141.434 45.6443 141.518 45.5229 141.576 45.3889C141.634 45.255 141.664 45.1112 141.664 44.9659V28.5125H139.427Z" fill="black"/>
<path d="M139.427 28.5125V42.7917C139.426 43.0821 139.308 43.3602 139.098 43.5656C138.889 43.7709 138.605 43.8868 138.309 43.888H123.741V46.0621H140.527C140.675 46.064 140.822 46.037 140.96 45.9828C141.098 45.9285 141.223 45.8482 141.329 45.7462C141.434 45.6443 141.518 45.5229 141.576 45.3889C141.634 45.255 141.664 45.1112 141.664 44.9659V28.5125H139.427Z" fill="black"/>
</svg>
